# xmcd CD database file
#
# Track frame offsets:
#	150
#	23550
#	47475
#	65625
#
# Disc length: 1266 seconds
#
# Revision: 0
# Processed by: cddbd v1.5PL3 Copyright (c) Steve Scherf et al.
# Submitted via: CDex 1.50beta10
#
DISCID=2a04f004
DTITLE=沢城みゆき - GALAXY ANGEL キャラクターファイル03 ミント・ブラマンシュ
DYEAR=2003
DGENRE=Anime
TTITLE0=テレパス・TV!
TTITLE1=セレナーデ
TTITLE2=in my heart （クラブ・リミックス）
TTITLE3=ミニドラマ 「ミントの耳はなんの耳？」
EXTD=YEAR: 2003/07/25
EXTT0=
EXTT1=
EXTT2=
EXTT3=
PLAYORDER=
